<?xml version="1.0" encoding="utf-8"?>
<!-- Generator: Adobe Illustrator 25.3.1, SVG Export Plug-In . SVG Version: 6.00 Build 0)  -->
<svg version="1.1" id="Ebene_1" xmlns="http://www.w3.org/2000/svg" xmlns:xlink="http://www.w3.org/1999/xlink" x="0px" y="0px"
	 viewBox="0 0 1491.02 337.32" style="enable-background:new 0 0 1491.02 337.32;" xml:space="preserve">
<style type="text/css">
	.st0{fill:#006E60;}
	.st1{fill:#1D1D1B;}
</style>
<g>
	<path class="st0" d="M254.31,67.38h-130.3v74.65h57.11l21.79,65.37h-79.44v112.75H43.38V0h188.86L254.31,67.38z M259.39,320.15
		h102.48l71.31-236.15l38.13,97.51h-49.3l-19.61,64.55h94.24l26.81,74.09h79.98L479.76,0.1H378.7l-66.73,239.97L258.25,84.05h-78.99
		L259.39,320.15z"/>
	<g>
		<path class="st1" d="M672.57,68.15h30.96v6.01h-24.22v19.42h22.59v6.01h-22.59v25.44h-6.75V68.15z"/>
		<path class="st1" d="M708.08,104.72c0-6.88,1.53-12.15,4.59-15.81c3.06-3.66,7.46-5.49,13.21-5.49c3.03,0,5.67,0.5,7.92,1.5
			c2.25,1,4.1,2.44,5.57,4.31c1.46,1.87,2.55,4.12,3.25,6.75c0.7,2.63,1.06,5.54,1.06,8.74c0,6.88-1.53,12.15-4.59,15.81
			c-3.06,3.66-7.46,5.49-13.21,5.49c-3.04,0-5.68-0.5-7.92-1.5c-2.25-1-4.1-2.44-5.57-4.31c-1.46-1.87-2.55-4.12-3.25-6.75
			C708.43,110.83,708.08,107.92,708.08,104.72z M714.82,104.72c0,2.06,0.2,4.04,0.61,5.93c0.41,1.9,1.04,3.55,1.91,4.96
			c0.87,1.41,2,2.55,3.41,3.41c1.41,0.87,3.12,1.3,5.12,1.3c7.37,0.05,11.05-5.15,11.05-15.6c0-2.11-0.2-4.12-0.61-6.01
			c-0.41-1.9-1.04-3.55-1.91-4.96c-0.87-1.41-2-2.53-3.41-3.37c-1.41-0.84-3.12-1.26-5.12-1.26
			C718.51,89.06,714.82,94.27,714.82,104.72z"/>
		<path class="st1" d="M773.09,90.66c-1.63-0.54-3.17-0.81-4.63-0.81c-2.33,0-4.17,0.64-5.53,1.91c-1.35,1.27-2.19,2.89-2.52,4.84
			v28.44h-6.5V84.4h4.55l1.22,4.96h0.33c1.03-1.84,2.26-3.26,3.7-4.27c1.43-1,3.26-1.5,5.49-1.5c1.57,0,3.33,0.27,5.28,0.81
			L773.09,90.66z"/>
		<path class="st1" d="M799.43,113.99c0-1.63-0.49-2.9-1.46-3.82c-0.97-0.92-2.18-1.69-3.62-2.32c-1.44-0.62-3.01-1.22-4.71-1.79
			c-1.71-0.57-3.28-1.3-4.71-2.19c-1.44-0.89-2.64-2.04-3.62-3.45c-0.98-1.41-1.46-3.3-1.46-5.69c0-3.9,1.11-6.76,3.33-8.57
			c2.22-1.81,5.31-2.72,9.26-2.72c2.92,0,5.38,0.26,7.35,0.77c1.98,0.52,3.7,1.12,5.16,1.83l-1.54,5.36
			c-1.25-0.6-2.75-1.12-4.51-1.58c-1.76-0.46-3.64-0.69-5.65-0.69c-2.38,0-4.13,0.41-5.24,1.22c-1.11,0.81-1.67,2.22-1.67,4.23
			c0,1.41,0.49,2.51,1.46,3.29c0.97,0.79,2.18,1.49,3.62,2.11c1.43,0.62,3.01,1.23,4.71,1.83c1.71,0.6,3.28,1.38,4.71,2.36
			s2.64,2.21,3.62,3.7c0.97,1.49,1.46,3.45,1.46,5.89c0,1.74-0.29,3.36-0.85,4.88c-0.57,1.52-1.45,2.82-2.64,3.9
			s-2.67,1.94-4.43,2.56c-1.76,0.62-3.83,0.94-6.22,0.94c-3.09,0-5.72-0.3-7.88-0.89c-2.17-0.6-3.98-1.3-5.45-2.11l1.95-5.53
			c1.25,0.7,2.87,1.35,4.88,1.95c2,0.6,4.04,0.89,6.1,0.89c2.33,0,4.25-0.46,5.77-1.38C798.67,118.02,799.43,116.37,799.43,113.99z"
			/>
		<path class="st1" d="M810.4,84.4h6.34v-8.05l6.5-1.87v9.92h11.05v5.69h-11.05v22.51c0,2.82,0.35,4.81,1.06,5.97
			c0.7,1.17,1.89,1.75,3.58,1.75c1.41,0,2.6-0.15,3.58-0.45c0.97-0.3,2.06-0.69,3.25-1.18l1.46,4.96c-1.46,0.7-3.06,1.27-4.8,1.71
			s-3.6,0.65-5.61,0.65c-3.31,0-5.64-0.94-6.99-2.8c-1.35-1.87-2.03-5-2.03-9.39V90.09h-6.34V84.4z"/>
		<path class="st1" d="M850.54,115.04c0,1.9,0.33,3.25,0.98,4.06c0.65,0.81,1.57,1.22,2.76,1.22c0.7,0,1.46-0.05,2.28-0.16
			c0.81-0.11,1.73-0.35,2.76-0.73l0.73,5.12c-0.87,0.43-2.07,0.79-3.62,1.06c-1.54,0.27-2.88,0.41-4.02,0.41
			c-2.44,0-4.44-0.69-6.01-2.07c-1.57-1.38-2.36-3.73-2.36-7.03V68.15h6.5V115.04z"/>
		<path class="st1" d="M867.04,72.05c0-1.25,0.42-2.32,1.26-3.21c0.84-0.89,1.91-1.34,3.21-1.34c1.3,0,2.41,0.45,3.33,1.34
			c0.92,0.89,1.38,1.96,1.38,3.21c0,1.25-0.46,2.28-1.38,3.09c-0.92,0.81-2.03,1.22-3.33,1.22c-1.3,0-2.37-0.41-3.21-1.22
			C867.46,74.33,867.04,73.3,867.04,72.05z M868.42,84.4h6.5v40.64h-6.5V84.4z"/>
		<path class="st1" d="M916.54,122.36c-1.63,1.19-3.55,2.1-5.77,2.72c-2.22,0.62-4.55,0.94-6.99,0.94c-3.14,0-5.8-0.5-7.96-1.5
			c-2.17-1-3.94-2.44-5.32-4.31c-1.38-1.87-2.39-4.12-3.01-6.75c-0.62-2.63-0.94-5.54-0.94-8.74c0-6.88,1.52-12.15,4.55-15.81
			c3.03-3.66,7.4-5.49,13.08-5.49c2.6,0,4.81,0.2,6.62,0.61c1.81,0.41,3.45,0.99,4.92,1.75l-1.87,5.61
			c-1.25-0.7-2.63-1.26-4.15-1.67c-1.52-0.41-3.14-0.61-4.88-0.61c-7.7,0-11.54,5.2-11.54,15.6c0,2.06,0.2,4.02,0.61,5.89
			s1.08,3.52,2.03,4.96c0.95,1.44,2.19,2.59,3.74,3.45c1.54,0.87,3.45,1.3,5.73,1.3c1.95,0,3.7-0.3,5.24-0.89
			c1.54-0.6,2.8-1.27,3.78-2.03L916.54,122.36z"/>
		<path class="st1" d="M951.57,125.04v-23.16c0-2.11-0.12-3.97-0.37-5.57c-0.24-1.6-0.69-2.93-1.34-3.98
			c-0.65-1.06-1.53-1.86-2.64-2.4c-1.11-0.54-2.56-0.81-4.35-0.81c-2.55,0-4.85,0.83-6.91,2.48c-2.06,1.65-3.39,3.78-3.98,6.38
			v27.06h-6.5V68.15h6.5v20.81h0.33c1.41-1.68,3.1-3.02,5.08-4.02c1.98-1,4.43-1.5,7.35-1.5c2.28,0,4.25,0.26,5.93,0.77
			c1.68,0.52,3.07,1.42,4.18,2.72c1.11,1.3,1.92,3.05,2.44,5.24c0.51,2.19,0.77,4.97,0.77,8.33v24.54H951.57z"/>
		<path class="st1" d="M999.6,121.79c-1.63,1.3-3.67,2.33-6.14,3.09c-2.47,0.76-5.08,1.14-7.84,1.14c-3.09,0-5.77-0.5-8.05-1.5
			c-2.27-1-4.14-2.44-5.61-4.31c-1.46-1.87-2.55-4.1-3.25-6.7c-0.7-2.6-1.06-5.53-1.06-8.78c0-6.93,1.54-12.22,4.63-15.85
			c3.09-3.63,7.5-5.44,13.25-5.44c1.84,0,3.68,0.2,5.53,0.61c1.84,0.41,3.49,1.18,4.96,2.32c1.46,1.14,2.65,2.75,3.58,4.84
			c0.92,2.09,1.38,4.84,1.38,8.25c0,1.79-0.16,3.77-0.49,5.93H974.4c0,2.38,0.24,4.5,0.73,6.34c0.49,1.84,1.25,3.4,2.28,4.67
			c1.03,1.27,2.37,2.25,4.02,2.93c1.65,0.68,3.67,1.02,6.05,1.02c1.84,0,3.68-0.33,5.53-0.98c1.84-0.65,3.22-1.41,4.14-2.28
			L999.6,121.79z M985.62,89.12c-3.2,0-5.76,0.84-7.68,2.52c-1.92,1.68-3.08,4.55-3.45,8.61h20.16c0-4.12-0.79-7-2.36-8.66
			C990.71,89.94,988.49,89.12,985.62,89.12z"/>
		<path class="st1" d="M1045.92,107.24l1.95,8.61h0.08l2.11-8.78l13.74-38.93h6.75l-21.54,57.78H1046l-21.94-57.78h7.4
			L1045.92,107.24z"/>
		<path class="st1" d="M1101.59,121.79c-1.63,1.3-3.67,2.33-6.14,3.09c-2.47,0.76-5.08,1.14-7.84,1.14c-3.09,0-5.77-0.5-8.05-1.5
			c-2.27-1-4.14-2.44-5.61-4.31c-1.46-1.87-2.55-4.1-3.25-6.7c-0.7-2.6-1.06-5.53-1.06-8.78c0-6.93,1.54-12.22,4.63-15.85
			c3.09-3.63,7.5-5.44,13.25-5.44c1.84,0,3.68,0.2,5.53,0.61c1.84,0.41,3.49,1.18,4.96,2.32c1.46,1.14,2.65,2.75,3.58,4.84
			c0.92,2.09,1.38,4.84,1.38,8.25c0,1.79-0.16,3.77-0.49,5.93h-26.09c0,2.38,0.24,4.5,0.73,6.34c0.49,1.84,1.25,3.4,2.28,4.67
			c1.03,1.27,2.37,2.25,4.02,2.93c1.65,0.68,3.67,1.02,6.05,1.02c1.84,0,3.68-0.33,5.53-0.98c1.84-0.65,3.22-1.41,4.14-2.28
			L1101.59,121.79z M1087.61,89.12c-3.2,0-5.76,0.84-7.68,2.52c-1.92,1.68-3.08,4.55-3.45,8.61h20.16c0-4.12-0.79-7-2.36-8.66
			C1092.7,89.94,1090.48,89.12,1087.61,89.12z"/>
		<path class="st1" d="M1132.39,90.66c-1.63-0.54-3.17-0.81-4.63-0.81c-2.33,0-4.17,0.64-5.53,1.91c-1.35,1.27-2.19,2.89-2.52,4.84
			v28.44h-6.5V84.4h4.55l1.22,4.96h0.33c1.03-1.84,2.26-3.26,3.7-4.27c1.43-1,3.26-1.5,5.49-1.5c1.57,0,3.33,0.27,5.28,0.81
			L1132.39,90.66z"/>
		<path class="st1" d="M1158.72,113.99c0-1.63-0.49-2.9-1.46-3.82c-0.97-0.92-2.18-1.69-3.62-2.32c-1.44-0.62-3.01-1.22-4.71-1.79
			c-1.71-0.57-3.28-1.3-4.71-2.19c-1.44-0.89-2.64-2.04-3.62-3.45c-0.98-1.41-1.46-3.3-1.46-5.69c0-3.9,1.11-6.76,3.33-8.57
			c2.22-1.81,5.31-2.72,9.26-2.72c2.92,0,5.38,0.26,7.35,0.77c1.98,0.52,3.7,1.12,5.16,1.83l-1.54,5.36
			c-1.25-0.6-2.75-1.12-4.51-1.58c-1.76-0.46-3.64-0.69-5.65-0.69c-2.38,0-4.13,0.41-5.24,1.22c-1.11,0.81-1.67,2.22-1.67,4.23
			c0,1.41,0.49,2.51,1.46,3.29c0.97,0.79,2.18,1.49,3.62,2.11c1.43,0.62,3.01,1.23,4.71,1.83c1.71,0.6,3.28,1.38,4.71,2.36
			c1.44,0.98,2.64,2.21,3.62,3.7c0.97,1.49,1.46,3.45,1.46,5.89c0,1.74-0.29,3.36-0.85,4.88c-0.57,1.52-1.45,2.82-2.64,3.9
			s-2.67,1.94-4.43,2.56c-1.76,0.62-3.83,0.94-6.22,0.94c-3.09,0-5.72-0.3-7.88-0.89c-2.17-0.6-3.98-1.3-5.45-2.11l1.95-5.53
			c1.25,0.7,2.87,1.35,4.88,1.95c2,0.6,4.04,0.89,6.1,0.89c2.33,0,4.25-0.46,5.77-1.38
			C1157.97,118.02,1158.72,116.37,1158.72,113.99z"/>
		<path class="st1" d="M1180.91,84.4v23.16c0,2.11,0.12,3.97,0.37,5.57c0.24,1.6,0.66,2.93,1.26,3.98c0.59,1.06,1.41,1.86,2.44,2.4
			c1.03,0.54,2.33,0.81,3.9,0.81c1.46,0,2.76-0.23,3.9-0.69c1.14-0.46,2.16-1.1,3.05-1.91c0.89-0.81,1.68-1.75,2.36-2.8
			c0.68-1.06,1.23-2.18,1.67-3.37V84.4h6.5v29.1c0,1.95,0.07,3.97,0.2,6.05c0.13,2.09,0.37,3.91,0.69,5.49h-4.47l-1.63-6.42h-0.41
			c-1.25,2.11-2.92,3.87-5.04,5.28c-2.11,1.41-4.79,2.11-8.05,2.11c-2.17,0-4.08-0.26-5.73-0.77c-1.65-0.51-3.04-1.42-4.14-2.72
			c-1.11-1.3-1.95-3.05-2.52-5.24c-0.57-2.19-0.85-4.97-0.85-8.33V84.4H1180.91z"/>
		<path class="st1" d="M1246.58,122.36c-1.63,1.19-3.55,2.1-5.77,2.72c-2.22,0.62-4.55,0.94-6.99,0.94c-3.14,0-5.8-0.5-7.96-1.5
			c-2.17-1-3.94-2.44-5.32-4.31c-1.38-1.87-2.39-4.12-3.01-6.75c-0.62-2.63-0.94-5.54-0.94-8.74c0-6.88,1.52-12.15,4.55-15.81
			c3.03-3.66,7.4-5.49,13.08-5.49c2.6,0,4.81,0.2,6.62,0.61c1.81,0.41,3.45,0.99,4.92,1.75l-1.87,5.61
			c-1.25-0.7-2.63-1.26-4.15-1.67c-1.52-0.41-3.14-0.61-4.88-0.61c-7.7,0-11.54,5.2-11.54,15.6c0,2.06,0.2,4.02,0.61,5.89
			c0.41,1.87,1.08,3.52,2.03,4.96c0.95,1.44,2.19,2.59,3.74,3.45c1.54,0.87,3.45,1.3,5.73,1.3c1.95,0,3.7-0.3,5.24-0.89
			c1.54-0.6,2.8-1.27,3.78-2.03L1246.58,122.36z"/>
		<path class="st1" d="M1281.61,125.04v-23.16c0-2.11-0.12-3.97-0.37-5.57c-0.24-1.6-0.69-2.93-1.34-3.98
			c-0.65-1.06-1.53-1.86-2.64-2.4c-1.11-0.54-2.56-0.81-4.35-0.81c-2.55,0-4.85,0.83-6.91,2.48c-2.06,1.65-3.39,3.78-3.98,6.38
			v27.06h-6.5V68.15h6.5v20.81h0.33c1.41-1.68,3.1-3.02,5.08-4.02c1.98-1,4.43-1.5,7.35-1.5c2.28,0,4.25,0.26,5.93,0.77
			c1.68,0.52,3.07,1.42,4.18,2.72c1.11,1.3,1.92,3.05,2.44,5.24c0.51,2.19,0.77,4.97,0.77,8.33v24.54H1281.61z"/>
		<path class="st1" d="M1317.85,113.99c0-1.63-0.49-2.9-1.46-3.82c-0.97-0.92-2.18-1.69-3.62-2.32c-1.44-0.62-3.01-1.22-4.71-1.79
			c-1.71-0.57-3.28-1.3-4.71-2.19c-1.44-0.89-2.64-2.04-3.62-3.45c-0.98-1.41-1.46-3.3-1.46-5.69c0-3.9,1.11-6.76,3.33-8.57
			c2.22-1.81,5.31-2.72,9.26-2.72c2.92,0,5.38,0.26,7.35,0.77c1.98,0.52,3.7,1.12,5.16,1.83l-1.54,5.36
			c-1.25-0.6-2.75-1.12-4.51-1.58c-1.76-0.46-3.64-0.69-5.65-0.69c-2.38,0-4.13,0.41-5.24,1.22c-1.11,0.81-1.67,2.22-1.67,4.23
			c0,1.41,0.49,2.51,1.46,3.29c0.97,0.79,2.18,1.49,3.62,2.11c1.43,0.62,3.01,1.23,4.71,1.83c1.71,0.6,3.28,1.38,4.71,2.36
			s2.64,2.21,3.62,3.7c0.97,1.49,1.46,3.45,1.46,5.89c0,1.74-0.29,3.36-0.85,4.88c-0.57,1.52-1.45,2.82-2.64,3.9
			c-1.19,1.08-2.67,1.94-4.43,2.56c-1.76,0.62-3.83,0.94-6.22,0.94c-3.09,0-5.72-0.3-7.88-0.89c-2.17-0.6-3.98-1.3-5.45-2.11
			l1.95-5.53c1.25,0.7,2.87,1.35,4.88,1.95c2,0.6,4.04,0.89,6.1,0.89c2.33,0,4.25-0.46,5.77-1.38
			C1317.09,118.02,1317.85,116.37,1317.85,113.99z"/>
		<path class="st1" d="M1332.73,98.63h19.67v6.01h-19.67V98.63z"/>
		<path class="st1" d="M677.77,181.93v23.16c0,2.11,0.12,3.97,0.37,5.57c0.24,1.6,0.66,2.92,1.26,3.98c0.6,1.06,1.41,1.86,2.44,2.4
			c1.03,0.54,2.33,0.81,3.9,0.81c1.46,0,2.76-0.23,3.9-0.69c1.14-0.46,2.15-1.1,3.05-1.91c0.89-0.81,1.68-1.75,2.36-2.8
			c0.68-1.06,1.23-2.18,1.67-3.37v-27.15h6.5v29.1c0,1.95,0.07,3.97,0.2,6.05c0.13,2.09,0.37,3.91,0.69,5.49h-4.47l-1.63-6.42h-0.41
			c-1.25,2.11-2.93,3.87-5.04,5.28s-4.79,2.11-8.05,2.11c-2.17,0-4.08-0.26-5.73-0.77c-1.65-0.51-3.04-1.42-4.15-2.72
			c-1.11-1.3-1.95-3.05-2.52-5.24c-0.57-2.19-0.85-4.97-0.85-8.33v-24.54H677.77z"/>
		<path class="st1" d="M741.81,222.57V199.4c0-4.23-0.61-7.41-1.83-9.55c-1.22-2.14-3.45-3.21-6.71-3.21
			c-2.87,0-5.24,0.77-7.11,2.32c-1.87,1.54-3.18,3.48-3.94,5.81v27.8h-6.5v-40.64h4.55l1.22,4.96h0.33c1.3-1.73,3.05-3.15,5.24-4.27
			c2.19-1.11,4.81-1.67,7.84-1.67c2.22,0,4.17,0.26,5.85,0.77c1.68,0.52,3.07,1.42,4.19,2.72c1.11,1.3,1.95,3.05,2.52,5.24
			c0.57,2.2,0.85,4.97,0.85,8.33v24.54H741.81z"/>
		<path class="st1" d="M791.39,208.59c0,2.76,0.03,5.27,0.08,7.52c0.05,2.25,0.3,4.46,0.73,6.62h-4.39l-1.63-5.77h-0.33
			c-1.08,1.9-2.66,3.47-4.71,4.71c-2.06,1.25-4.47,1.87-7.23,1.87c-5.42,0-9.44-1.71-12.07-5.12c-2.63-3.41-3.94-8.75-3.94-16.01
			c0-6.93,1.64-12.2,4.92-15.81c3.28-3.6,7.79-5.41,13.53-5.41c2,0,3.59,0.11,4.75,0.33c1.16,0.22,2.42,0.57,3.78,1.06v-16.9h6.5
			V208.59z M774.97,217.85c2.76,0,4.96-0.72,6.58-2.15c1.63-1.43,2.74-3.62,3.33-6.54V189c-0.98-0.76-2.09-1.3-3.33-1.63
			c-1.25-0.33-2.9-0.49-4.96-0.49c-3.74,0-6.66,1.23-8.78,3.7c-2.11,2.47-3.17,6.41-3.17,11.83c0,2.22,0.17,4.28,0.53,6.18
			c0.35,1.9,0.93,3.52,1.75,4.88c0.81,1.35,1.88,2.42,3.21,3.21C771.46,217.46,773.07,217.85,774.97,217.85z"/>
		<path class="st1" d="M826.25,165.68h30.96v6.01H833v19.42h22.59v6.01H833v25.44h-6.75V165.68z"/>
		<path class="st1" d="M861.76,202.25c0-6.88,1.53-12.15,4.59-15.81c3.06-3.66,7.46-5.49,13.21-5.49c3.03,0,5.67,0.5,7.92,1.5
			c2.25,1,4.1,2.44,5.57,4.31c1.46,1.87,2.55,4.12,3.25,6.75c0.7,2.63,1.06,5.54,1.06,8.74c0,6.88-1.53,12.15-4.59,15.81
			c-3.06,3.66-7.46,5.49-13.21,5.49c-3.04,0-5.68-0.5-7.92-1.5c-2.25-1-4.1-2.44-5.57-4.31c-1.46-1.87-2.55-4.12-3.25-6.75
			C862.11,208.36,861.76,205.45,861.76,202.25z M868.51,202.25c0,2.06,0.2,4.04,0.61,5.93s1.04,3.55,1.91,4.96
			c0.87,1.41,2,2.55,3.41,3.41c1.41,0.87,3.12,1.3,5.12,1.3c7.37,0.06,11.05-5.15,11.05-15.6c0-2.11-0.2-4.12-0.61-6.01
			c-0.41-1.9-1.04-3.55-1.91-4.96c-0.87-1.41-2-2.53-3.41-3.37c-1.41-0.84-3.12-1.26-5.12-1.26
			C872.19,186.59,868.51,191.79,868.51,202.25z"/>
		<path class="st1" d="M926.78,188.19c-1.63-0.54-3.17-0.81-4.63-0.81c-2.33,0-4.17,0.64-5.53,1.91c-1.35,1.27-2.19,2.88-2.52,4.84
			v28.45h-6.5v-40.64h4.55l1.22,4.96h0.33c1.03-1.84,2.26-3.26,3.7-4.27c1.43-1,3.26-1.5,5.49-1.5c1.57,0,3.33,0.27,5.28,0.81
			L926.78,188.19z"/>
		<path class="st1" d="M953.11,211.51c0-1.63-0.49-2.9-1.46-3.82c-0.97-0.92-2.18-1.69-3.62-2.32c-1.44-0.62-3.01-1.22-4.71-1.79
			s-3.28-1.3-4.71-2.2c-1.44-0.89-2.64-2.04-3.62-3.45c-0.98-1.41-1.46-3.3-1.46-5.69c0-3.9,1.11-6.76,3.33-8.58
			c2.22-1.81,5.31-2.72,9.26-2.72c2.92,0,5.38,0.26,7.35,0.77c1.98,0.52,3.7,1.13,5.16,1.83l-1.54,5.36
			c-1.25-0.59-2.75-1.12-4.51-1.58c-1.76-0.46-3.64-0.69-5.65-0.69c-2.38,0-4.13,0.41-5.24,1.22c-1.11,0.81-1.67,2.22-1.67,4.23
			c0,1.41,0.49,2.51,1.46,3.29c0.97,0.79,2.18,1.49,3.62,2.11c1.43,0.62,3.01,1.23,4.71,1.83c1.71,0.6,3.28,1.38,4.71,2.36
			c1.44,0.98,2.64,2.21,3.62,3.7c0.97,1.49,1.46,3.45,1.46,5.89c0,1.74-0.29,3.36-0.85,4.88c-0.57,1.52-1.45,2.82-2.64,3.9
			c-1.19,1.08-2.67,1.94-4.43,2.56c-1.76,0.62-3.83,0.94-6.22,0.94c-3.09,0-5.72-0.3-7.88-0.9c-2.17-0.59-3.98-1.3-5.45-2.11
			l1.95-5.53c1.25,0.7,2.87,1.36,4.88,1.95c2,0.6,4.04,0.89,6.1,0.89c2.33,0,4.25-0.46,5.77-1.38
			C952.35,215.55,953.11,213.9,953.11,211.51z"/>
		<path class="st1" d="M997.16,219.89c-1.63,1.19-3.55,2.1-5.77,2.72c-2.22,0.62-4.55,0.94-6.99,0.94c-3.14,0-5.8-0.5-7.96-1.5
			c-2.17-1-3.94-2.44-5.32-4.31c-1.38-1.87-2.39-4.12-3.01-6.75c-0.62-2.63-0.94-5.54-0.94-8.74c0-6.88,1.52-12.15,4.55-15.81
			c3.03-3.66,7.4-5.49,13.08-5.49c2.6,0,4.81,0.2,6.62,0.61c1.81,0.41,3.45,0.99,4.92,1.75l-1.87,5.61
			c-1.25-0.7-2.63-1.26-4.15-1.67c-1.52-0.41-3.14-0.61-4.88-0.61c-7.7,0-11.54,5.2-11.54,15.6c0,2.06,0.2,4.02,0.61,5.89
			c0.41,1.87,1.08,3.52,2.03,4.96c0.95,1.44,2.19,2.59,3.74,3.45c1.54,0.87,3.45,1.3,5.73,1.3c1.95,0,3.7-0.3,5.24-0.89
			c1.54-0.59,2.8-1.27,3.78-2.03L997.16,219.89z"/>
		<path class="st1" d="M1032.19,222.57V199.4c0-2.11-0.12-3.97-0.37-5.57c-0.24-1.6-0.69-2.93-1.34-3.98
			c-0.65-1.06-1.53-1.85-2.64-2.4c-1.11-0.54-2.56-0.81-4.35-0.81c-2.55,0-4.85,0.83-6.91,2.48c-2.06,1.65-3.39,3.78-3.98,6.38
			v27.06h-6.5v-56.89h6.5v20.8h0.33c1.41-1.68,3.1-3.02,5.08-4.02c1.98-1,4.43-1.5,7.35-1.5c2.28,0,4.25,0.26,5.93,0.77
			c1.68,0.52,3.07,1.42,4.18,2.72c1.11,1.3,1.92,3.05,2.44,5.24c0.51,2.2,0.77,4.97,0.77,8.33v24.54H1032.19z"/>
		<path class="st1" d="M1056.4,181.93v23.16c0,2.11,0.12,3.97,0.37,5.57c0.24,1.6,0.66,2.92,1.26,3.98c0.59,1.06,1.41,1.86,2.44,2.4
			c1.03,0.54,2.33,0.81,3.9,0.81c1.46,0,2.76-0.23,3.9-0.69c1.14-0.46,2.16-1.1,3.05-1.91c0.89-0.81,1.68-1.75,2.36-2.8
			c0.68-1.06,1.23-2.18,1.67-3.37v-27.15h6.5v29.1c0,1.95,0.07,3.97,0.2,6.05c0.13,2.09,0.37,3.91,0.69,5.49h-4.47l-1.63-6.42h-0.41
			c-1.25,2.11-2.92,3.87-5.04,5.28s-4.79,2.11-8.05,2.11c-2.17,0-4.08-0.26-5.73-0.77c-1.65-0.51-3.04-1.42-4.14-2.72
			c-1.11-1.3-1.95-3.05-2.52-5.24c-0.57-2.19-0.85-4.97-0.85-8.33v-24.54H1056.4z"/>
		<path class="st1" d="M1120.45,222.57V199.4c0-4.23-0.61-7.41-1.83-9.55c-1.22-2.14-3.45-3.21-6.71-3.21
			c-2.87,0-5.24,0.77-7.11,2.32c-1.87,1.54-3.18,3.48-3.94,5.81v27.8h-6.5v-40.64h4.55l1.22,4.96h0.33c1.3-1.73,3.05-3.15,5.24-4.27
			c2.2-1.11,4.81-1.67,7.84-1.67c2.22,0,4.17,0.26,5.85,0.77c1.68,0.52,3.07,1.42,4.18,2.72c1.11,1.3,1.95,3.05,2.52,5.24
			c0.57,2.2,0.85,4.97,0.85,8.33v24.54H1120.45z"/>
		<path class="st1" d="M1169.94,224.44c0,5.25-1.4,9.13-4.18,11.62c-2.79,2.49-6.92,3.74-12.39,3.74c-3.25,0-5.87-0.2-7.84-0.61
			c-1.98-0.41-3.67-0.93-5.08-1.58l1.71-5.53c1.25,0.49,2.63,0.95,4.15,1.38c1.51,0.43,3.49,0.65,5.93,0.65
			c2.28,0,4.13-0.2,5.57-0.61c1.43-0.41,2.59-1.08,3.45-2.03c0.87-0.95,1.46-2.17,1.79-3.66c0.33-1.49,0.49-3.27,0.49-5.32v-3.9
			h-0.33c-1.08,1.57-2.47,2.78-4.14,3.62c-1.68,0.84-3.87,1.26-6.58,1.26c-5.47,0-9.5-1.71-12.07-5.12
			c-2.57-3.41-3.86-8.72-3.86-15.93c0-6.93,1.65-12.2,4.96-15.81c3.3-3.6,8.18-5.41,14.63-5.41c3.09,0,5.73,0.24,7.92,0.73
			c2.19,0.49,4.16,1.06,5.89,1.71V224.44z M1153.6,217.77c2.76,0,4.93-0.69,6.5-2.07c1.57-1.38,2.68-3.54,3.33-6.46v-20.81
			c-2.17-1.03-4.93-1.54-8.29-1.54c-3.69,0-6.58,1.25-8.7,3.74c-2.11,2.49-3.17,6.39-3.17,11.7c0,2.28,0.19,4.36,0.57,6.26
			c0.38,1.9,0.97,3.52,1.79,4.88c0.81,1.35,1.87,2.41,3.17,3.17C1150.11,217.39,1151.71,217.77,1153.6,217.77z"/>
		<path class="st1" d="M1200.33,211.51c0-1.63-0.49-2.9-1.46-3.82c-0.97-0.92-2.18-1.69-3.62-2.32c-1.44-0.62-3.01-1.22-4.71-1.79
			c-1.71-0.57-3.28-1.3-4.71-2.2s-2.64-2.04-3.62-3.45c-0.98-1.41-1.46-3.3-1.46-5.69c0-3.9,1.11-6.76,3.33-8.58
			c2.22-1.81,5.31-2.72,9.26-2.72c2.92,0,5.38,0.26,7.35,0.77c1.98,0.52,3.7,1.13,5.16,1.83l-1.54,5.36
			c-1.25-0.59-2.75-1.12-4.51-1.58c-1.76-0.46-3.64-0.69-5.65-0.69c-2.38,0-4.13,0.41-5.24,1.22c-1.11,0.81-1.67,2.22-1.67,4.23
			c0,1.41,0.49,2.51,1.46,3.29c0.97,0.79,2.18,1.49,3.62,2.11c1.43,0.62,3.01,1.23,4.71,1.83c1.71,0.6,3.28,1.38,4.71,2.36
			c1.44,0.98,2.64,2.21,3.62,3.7c0.97,1.49,1.46,3.45,1.46,5.89c0,1.74-0.29,3.36-0.85,4.88c-0.57,1.52-1.45,2.82-2.64,3.9
			c-1.19,1.08-2.67,1.94-4.43,2.56c-1.76,0.62-3.83,0.94-6.22,0.94c-3.09,0-5.72-0.3-7.88-0.9c-2.17-0.59-3.98-1.3-5.45-2.11
			l1.95-5.53c1.25,0.7,2.87,1.36,4.88,1.95c2,0.6,4.04,0.89,6.1,0.89c2.33,0,4.25-0.46,5.77-1.38
			C1199.57,215.55,1200.33,213.9,1200.33,211.51z"/>
		<path class="st1" d="M1216.02,184.94c2.06-1.25,4.46-2.17,7.19-2.76c2.74-0.6,5.59-0.89,8.58-0.89c2.82,0,5.08,0.38,6.79,1.14
			c1.71,0.76,3.01,1.75,3.9,2.97c0.89,1.22,1.49,2.56,1.79,4.02c0.3,1.46,0.45,2.92,0.45,4.39c0,3.25-0.08,6.42-0.24,9.51
			c-0.16,3.09-0.24,6.01-0.24,8.78c0,2,0.08,3.9,0.24,5.69s0.46,3.44,0.89,4.96h-4.79l-1.71-5.69h-0.41
			c-0.49,0.76-1.1,1.5-1.83,2.23c-0.73,0.73-1.61,1.38-2.64,1.95c-1.03,0.57-2.22,1.04-3.58,1.42c-1.36,0.38-2.9,0.57-4.63,0.57
			c-1.74,0-3.35-0.27-4.84-0.81c-1.49-0.54-2.78-1.31-3.86-2.32c-1.08-1-1.94-2.21-2.56-3.62c-0.62-1.41-0.93-3.01-0.93-4.8
			c0-2.38,0.49-4.37,1.46-5.97c0.98-1.6,2.34-2.87,4.1-3.82c1.76-0.95,3.87-1.63,6.34-2.03c2.46-0.41,5.19-0.61,8.17-0.61
			c0.76,0,1.5,0,2.24,0s1.47,0.05,2.24,0.16c0.16-1.63,0.24-3.09,0.24-4.39c0-2.98-0.6-5.06-1.79-6.26
			c-1.19-1.19-3.36-1.79-6.5-1.79c-0.92,0-1.91,0.07-2.97,0.21c-1.06,0.14-2.14,0.33-3.25,0.58c-1.11,0.25-2.17,0.56-3.17,0.92
			c-1,0.36-1.88,0.77-2.64,1.21L1216.02,184.94z M1227.56,217.53c1.52,0,2.87-0.2,4.06-0.61c1.19-0.41,2.22-0.92,3.09-1.54
			c0.87-0.62,1.58-1.31,2.15-2.07c0.57-0.76,0.99-1.49,1.26-2.2v-6.75c-0.76-0.05-1.53-0.09-2.32-0.12
			c-0.79-0.03-1.56-0.04-2.32-0.04c-1.68,0-3.32,0.1-4.92,0.29c-1.6,0.19-3.01,0.54-4.23,1.06c-1.22,0.52-2.2,1.22-2.93,2.11
			s-1.1,2.02-1.1,3.37c0,1.9,0.68,3.45,2.03,4.67C1223.71,216.92,1225.45,217.53,1227.56,217.53z"/>
		<path class="st1" d="M1283.07,222.57V199.4c0-4.23-0.61-7.41-1.83-9.55c-1.22-2.14-3.45-3.21-6.71-3.21
			c-2.87,0-5.24,0.77-7.11,2.32c-1.87,1.54-3.18,3.48-3.94,5.81v27.8h-6.5v-40.64h4.55l1.22,4.96h0.33c1.3-1.73,3.05-3.15,5.24-4.27
			c2.2-1.11,4.81-1.67,7.84-1.67c2.22,0,4.17,0.26,5.85,0.77c1.68,0.52,3.07,1.42,4.18,2.72c1.11,1.3,1.95,3.05,2.52,5.24
			c0.57,2.2,0.85,4.97,0.85,8.33v24.54H1283.07z"/>
		<path class="st1" d="M1319.31,211.51c0-1.63-0.49-2.9-1.46-3.82c-0.97-0.92-2.18-1.69-3.62-2.32c-1.44-0.62-3.01-1.22-4.71-1.79
			c-1.71-0.57-3.28-1.3-4.71-2.2c-1.44-0.89-2.64-2.04-3.62-3.45c-0.98-1.41-1.46-3.3-1.46-5.69c0-3.9,1.11-6.76,3.33-8.58
			c2.22-1.81,5.31-2.72,9.26-2.72c2.92,0,5.38,0.26,7.35,0.77c1.98,0.52,3.7,1.13,5.16,1.83l-1.54,5.36
			c-1.25-0.59-2.75-1.12-4.51-1.58c-1.76-0.46-3.64-0.69-5.65-0.69c-2.38,0-4.13,0.41-5.24,1.22c-1.11,0.81-1.67,2.22-1.67,4.23
			c0,1.41,0.49,2.51,1.46,3.29c0.97,0.79,2.18,1.49,3.62,2.11c1.43,0.62,3.01,1.23,4.71,1.83c1.71,0.6,3.28,1.38,4.71,2.36
			c1.44,0.98,2.64,2.21,3.62,3.7c0.97,1.49,1.46,3.45,1.46,5.89c0,1.74-0.29,3.36-0.85,4.88c-0.57,1.52-1.45,2.82-2.64,3.9
			c-1.19,1.08-2.67,1.94-4.43,2.56c-1.76,0.62-3.83,0.94-6.22,0.94c-3.09,0-5.72-0.3-7.88-0.9c-2.17-0.59-3.98-1.3-5.45-2.11
			l1.95-5.53c1.25,0.7,2.87,1.36,4.88,1.95c2,0.6,4.04,0.89,6.1,0.89c2.33,0,4.25-0.46,5.77-1.38
			C1318.56,215.55,1319.31,213.9,1319.31,211.51z"/>
		<path class="st1" d="M1330.29,181.93h6.34v-8.05l6.5-1.87v9.92h11.05v5.69h-11.05v22.51c0,2.82,0.35,4.81,1.06,5.97
			c0.7,1.17,1.89,1.75,3.58,1.75c1.41,0,2.6-0.15,3.58-0.45c0.97-0.3,2.06-0.69,3.25-1.18l1.46,4.96c-1.46,0.7-3.06,1.27-4.8,1.71
			c-1.73,0.43-3.6,0.65-5.61,0.65c-3.31,0-5.64-0.94-6.99-2.8c-1.35-1.87-2.03-5-2.03-9.39v-23.73h-6.34V181.93z"/>
		<path class="st1" d="M1362.55,184.94c2.06-1.25,4.46-2.17,7.19-2.76c2.74-0.6,5.59-0.89,8.58-0.89c2.82,0,5.08,0.38,6.79,1.14
			c1.71,0.76,3.01,1.75,3.9,2.97c0.89,1.22,1.49,2.56,1.79,4.02c0.3,1.46,0.45,2.92,0.45,4.39c0,3.25-0.08,6.42-0.24,9.51
			c-0.16,3.09-0.24,6.01-0.24,8.78c0,2,0.08,3.9,0.24,5.69s0.46,3.44,0.89,4.96h-4.79l-1.71-5.69h-0.41
			c-0.49,0.76-1.1,1.5-1.83,2.23c-0.73,0.73-1.61,1.38-2.64,1.95c-1.03,0.57-2.22,1.04-3.58,1.42c-1.36,0.38-2.9,0.57-4.63,0.57
			c-1.74,0-3.35-0.27-4.84-0.81c-1.49-0.54-2.78-1.31-3.86-2.32c-1.08-1-1.94-2.21-2.56-3.62c-0.62-1.41-0.93-3.01-0.93-4.8
			c0-2.38,0.49-4.37,1.46-5.97c0.98-1.6,2.34-2.87,4.1-3.82c1.76-0.95,3.87-1.63,6.34-2.03c2.46-0.41,5.19-0.61,8.17-0.61
			c0.76,0,1.5,0,2.24,0c0.73,0,1.47,0.05,2.24,0.16c0.16-1.63,0.24-3.09,0.24-4.39c0-2.98-0.6-5.06-1.79-6.26
			c-1.19-1.19-3.36-1.79-6.5-1.79c-0.92,0-1.91,0.07-2.97,0.21c-1.06,0.14-2.14,0.33-3.25,0.58c-1.11,0.25-2.17,0.56-3.17,0.92
			c-1,0.36-1.88,0.77-2.64,1.21L1362.55,184.94z M1374.09,217.53c1.52,0,2.87-0.2,4.06-0.61c1.19-0.41,2.22-0.92,3.09-1.54
			c0.87-0.62,1.58-1.31,2.15-2.07c0.57-0.76,0.99-1.49,1.26-2.2v-6.75c-0.76-0.05-1.53-0.09-2.32-0.12
			c-0.79-0.03-1.56-0.04-2.32-0.04c-1.68,0-3.32,0.1-4.92,0.29c-1.6,0.19-3.01,0.54-4.23,1.06c-1.22,0.52-2.2,1.22-2.93,2.11
			c-0.73,0.89-1.1,2.02-1.1,3.37c0,1.9,0.68,3.45,2.03,4.67S1371.98,217.53,1374.09,217.53z"/>
		<path class="st1" d="M1410.74,212.57c0,1.9,0.33,3.25,0.98,4.06c0.65,0.81,1.57,1.22,2.76,1.22c0.7,0,1.46-0.05,2.28-0.16
			c0.81-0.11,1.73-0.35,2.76-0.73l0.73,5.12c-0.87,0.44-2.07,0.79-3.62,1.06c-1.54,0.27-2.88,0.41-4.02,0.41
			c-2.44,0-4.44-0.69-6.01-2.07c-1.57-1.38-2.36-3.72-2.36-7.03v-48.76h6.5V212.57z"/>
		<path class="st1" d="M1421.88,181.93h6.34v-8.05l6.5-1.87v9.92h11.05v5.69h-11.05v22.51c0,2.82,0.35,4.81,1.06,5.97
			c0.7,1.17,1.89,1.75,3.58,1.75c1.41,0,2.6-0.15,3.58-0.45c0.97-0.3,2.06-0.69,3.25-1.18l1.46,4.96c-1.46,0.7-3.06,1.27-4.8,1.71
			c-1.73,0.43-3.6,0.65-5.61,0.65c-3.31,0-5.64-0.94-6.99-2.8c-1.35-1.87-2.03-5-2.03-9.39v-23.73h-6.34V181.93z"/>
		<path class="st1" d="M706.86,276.21c0,1.36-0.22,2.74-0.65,4.15c-0.43,1.41-1.08,2.72-1.95,3.94c-0.87,1.22-1.98,2.29-3.33,3.21
			c-1.35,0.92-2.95,1.63-4.79,2.11v0.33c1.63,0.27,3.18,0.73,4.67,1.38c1.49,0.65,2.8,1.54,3.94,2.68c1.14,1.14,2.06,2.52,2.76,4.14
			c0.7,1.63,1.06,3.55,1.06,5.77c0,2.92-0.61,5.46-1.83,7.6c-1.22,2.14-2.82,3.89-4.79,5.24c-1.98,1.36-4.24,2.36-6.79,3.01
			c-2.55,0.65-5.15,0.98-7.8,0.98c-0.92,0-2,0-3.25,0s-2.55-0.04-3.9-0.12c-1.35-0.08-2.71-0.19-4.06-0.33
			c-1.35-0.14-2.55-0.34-3.58-0.61v-56c2-0.32,4.33-0.59,6.99-0.81c2.65-0.22,5.55-0.33,8.7-0.33c2.11,0,4.27,0.18,6.46,0.53
			c2.19,0.35,4.19,1.03,5.97,2.03c1.79,1,3.26,2.4,4.43,4.19C706.28,271.09,706.86,273.39,706.86,276.21z M683.54,288.23
			c0.92,0,2.03-0.03,3.33-0.08c1.3-0.05,2.38-0.13,3.25-0.24c1.3-0.43,2.52-0.96,3.66-1.58c1.14-0.62,2.15-1.35,3.05-2.19
			c0.89-0.84,1.6-1.81,2.11-2.93c0.51-1.11,0.77-2.32,0.77-3.62c0-1.79-0.34-3.26-1.02-4.43c-0.68-1.17-1.58-2.1-2.72-2.8
			c-1.14-0.7-2.44-1.21-3.9-1.5c-1.46-0.3-2.95-0.45-4.47-0.45c-1.79,0-3.43,0.04-4.92,0.12c-1.49,0.08-2.61,0.2-3.37,0.37v19.34
			H683.54z M688.01,314.89c1.73,0,3.41-0.2,5.04-0.61c1.63-0.41,3.06-1.06,4.31-1.95c1.25-0.89,2.23-1.99,2.97-3.29
			c0.73-1.3,1.1-2.84,1.1-4.63c0-2.22-0.45-4.01-1.34-5.36c-0.89-1.35-2.06-2.41-3.5-3.17c-1.44-0.76-3.05-1.27-4.84-1.54
			c-1.79-0.27-3.58-0.41-5.36-0.41h-7.07v20.4c0.38,0.11,0.92,0.19,1.63,0.24c0.7,0.05,1.46,0.11,2.28,0.16
			c0.81,0.05,1.65,0.09,2.52,0.12C686.6,314.88,687.36,314.89,688.01,314.89z"/>
		<path class="st1" d="M718.73,282.46c2.06-1.25,4.46-2.17,7.19-2.76c2.74-0.6,5.59-0.89,8.57-0.89c2.82,0,5.08,0.38,6.79,1.14
			c1.71,0.76,3.01,1.75,3.9,2.97c0.89,1.22,1.49,2.56,1.79,4.02c0.3,1.46,0.45,2.92,0.45,4.39c0,3.25-0.08,6.42-0.24,9.51
			c-0.16,3.09-0.24,6.01-0.24,8.78c0,2,0.08,3.9,0.24,5.69c0.16,1.79,0.46,3.44,0.89,4.96h-4.79l-1.71-5.69h-0.41
			c-0.49,0.76-1.1,1.5-1.83,2.23c-0.73,0.73-1.61,1.38-2.64,1.95c-1.03,0.57-2.22,1.04-3.58,1.42c-1.35,0.38-2.9,0.57-4.63,0.57
			c-1.74,0-3.35-0.27-4.84-0.81c-1.49-0.54-2.78-1.31-3.86-2.32c-1.08-1-1.94-2.21-2.56-3.62c-0.62-1.41-0.93-3.01-0.93-4.8
			c0-2.38,0.49-4.37,1.46-5.97c0.98-1.6,2.34-2.87,4.1-3.82c1.76-0.95,3.87-1.63,6.34-2.03c2.46-0.41,5.19-0.61,8.17-0.61
			c0.76,0,1.5,0,2.23,0s1.48,0.05,2.23,0.16c0.16-1.63,0.24-3.09,0.24-4.39c0-2.98-0.6-5.06-1.79-6.26
			c-1.19-1.19-3.36-1.79-6.5-1.79c-0.92,0-1.91,0.07-2.97,0.21c-1.06,0.14-2.14,0.33-3.25,0.58c-1.11,0.25-2.17,0.56-3.17,0.92
			c-1,0.36-1.88,0.77-2.64,1.21L718.73,282.46z M730.27,315.06c1.52,0,2.87-0.2,4.06-0.61c1.19-0.41,2.22-0.92,3.09-1.54
			c0.87-0.62,1.58-1.31,2.15-2.07c0.57-0.76,0.99-1.49,1.26-2.2v-6.75c-0.76-0.05-1.53-0.09-2.32-0.12
			c-0.79-0.03-1.56-0.04-2.32-0.04c-1.68,0-3.32,0.1-4.92,0.29c-1.6,0.19-3.01,0.54-4.23,1.06c-1.22,0.52-2.19,1.22-2.93,2.11
			c-0.73,0.89-1.1,2.02-1.1,3.37c0,1.9,0.68,3.45,2.03,4.67C726.42,314.45,728.16,315.06,730.27,315.06z"/>
		<path class="st1" d="M790.9,306.11c0,2.76,0.03,5.27,0.08,7.52c0.05,2.25,0.3,4.46,0.73,6.62h-4.39l-1.63-5.77h-0.33
			c-1.08,1.9-2.66,3.47-4.71,4.71c-2.06,1.25-4.47,1.87-7.23,1.87c-5.42,0-9.44-1.71-12.07-5.12c-2.63-3.41-3.94-8.75-3.94-16.01
			c0-6.93,1.64-12.2,4.92-15.81c3.28-3.6,7.79-5.41,13.53-5.41c2,0,3.59,0.11,4.75,0.33c1.16,0.22,2.42,0.57,3.78,1.06v-16.9h6.5
			V306.11z M774.48,315.38c2.76,0,4.96-0.72,6.58-2.15c1.63-1.43,2.74-3.62,3.33-6.54v-20.16c-0.98-0.76-2.09-1.3-3.33-1.63
			c-1.25-0.33-2.9-0.49-4.96-0.49c-3.74,0-6.66,1.23-8.78,3.7c-2.11,2.47-3.17,6.41-3.17,11.83c0,2.22,0.18,4.28,0.53,6.18
			c0.35,1.9,0.93,3.52,1.75,4.88c0.81,1.35,1.88,2.42,3.21,3.21C770.97,314.99,772.58,315.38,774.48,315.38z"/>
		<path class="st1" d="M833.08,316.84c-1.63,1.3-3.67,2.33-6.14,3.09c-2.47,0.76-5.08,1.14-7.84,1.14c-3.09,0-5.77-0.5-8.05-1.5
			c-2.27-1-4.14-2.44-5.61-4.31c-1.46-1.87-2.55-4.1-3.25-6.71c-0.7-2.6-1.06-5.53-1.06-8.78c0-6.93,1.54-12.22,4.63-15.85
			c3.09-3.63,7.5-5.45,13.25-5.45c1.84,0,3.68,0.2,5.53,0.61c1.84,0.41,3.49,1.18,4.96,2.32c1.46,1.14,2.65,2.75,3.58,4.84
			c0.92,2.09,1.38,4.84,1.38,8.25c0,1.79-0.16,3.77-0.49,5.93h-26.09c0,2.38,0.24,4.5,0.73,6.34c0.49,1.84,1.25,3.4,2.28,4.67
			c1.03,1.27,2.37,2.25,4.02,2.93c1.65,0.68,3.67,1.01,6.05,1.01c1.84,0,3.68-0.32,5.53-0.97c1.84-0.65,3.22-1.41,4.14-2.28
			L833.08,316.84z M819.1,284.17c-3.2,0-5.76,0.84-7.68,2.52c-1.92,1.68-3.08,4.55-3.45,8.62h20.16c0-4.12-0.79-7-2.36-8.66
			C824.19,285,821.97,284.17,819.1,284.17z"/>
		<path class="st1" d="M870.79,320.09v-23.16c0-4.23-0.61-7.41-1.83-9.55c-1.22-2.14-3.45-3.21-6.71-3.21
			c-2.87,0-5.24,0.77-7.11,2.32c-1.87,1.54-3.18,3.48-3.94,5.81v27.8h-6.5v-40.64h4.55l1.22,4.96h0.33c1.3-1.73,3.05-3.15,5.24-4.27
			c2.2-1.11,4.81-1.67,7.84-1.67c2.22,0,4.17,0.26,5.85,0.77c1.68,0.52,3.07,1.42,4.18,2.72c1.11,1.3,1.95,3.05,2.52,5.24
			c0.57,2.2,0.85,4.97,0.85,8.33v24.54H870.79z"/>
		<path class="st1" d="M887.69,293.68h19.67v6.01h-19.67V293.68z"/>
		<path class="st1" d="M930.2,301.32l1.3,9.43h0.08l1.38-9.59l11.7-37.95h3.25l11.79,38.12l1.41,9.43h0.08l1.5-9.59l9.6-37.95h6.5
			l-15.85,57.78h-3.74l-11.54-38.12l-1.46-8.62h-0.41l-1.46,8.7l-11.54,38.04h-3.74l-16.25-57.78h7.15L930.2,301.32z"/>
		<path class="st1" d="M989.12,279.46v23.16c0,2.11,0.12,3.97,0.37,5.57c0.24,1.6,0.66,2.92,1.26,3.98c0.59,1.06,1.41,1.86,2.44,2.4
			c1.03,0.54,2.33,0.81,3.9,0.81c1.46,0,2.76-0.23,3.9-0.69c1.14-0.46,2.16-1.1,3.05-1.91c0.89-0.81,1.68-1.75,2.36-2.8
			c0.68-1.06,1.23-2.18,1.67-3.37v-27.15h6.5v29.1c0,1.95,0.07,3.97,0.2,6.05c0.13,2.09,0.37,3.92,0.69,5.49h-4.47l-1.63-6.42h-0.41
			c-1.25,2.11-2.92,3.87-5.04,5.28c-2.11,1.41-4.79,2.11-8.05,2.11c-2.17,0-4.08-0.26-5.73-0.77c-1.65-0.51-3.04-1.42-4.14-2.72
			c-1.11-1.3-1.95-3.05-2.52-5.24c-0.57-2.19-0.85-4.97-0.85-8.33v-24.54H989.12z M987.17,267.02c0-1.25,0.37-2.25,1.1-3.01
			c0.73-0.76,1.69-1.14,2.88-1.14c1.19,0,2.15,0.38,2.88,1.14c0.73,0.76,1.1,1.76,1.1,3.01c0,1.14-0.37,2.09-1.1,2.84
			c-0.73,0.76-1.69,1.14-2.88,1.14c-1.19,0-2.15-0.38-2.88-1.14C987.53,269.11,987.17,268.16,987.17,267.02z M1002.77,267.02
			c0-1.25,0.37-2.25,1.1-3.01c0.73-0.76,1.69-1.14,2.88-1.14c1.25,0,2.24,0.38,2.97,1.14c0.73,0.76,1.1,1.76,1.1,3.01
			c0,1.14-0.37,2.09-1.1,2.84c-0.73,0.76-1.72,1.14-2.97,1.14c-1.19,0-2.15-0.38-2.88-1.14
			C1003.14,269.11,1002.77,268.16,1002.77,267.02z"/>
		<path class="st1" d="M1046.25,285.72c-1.63-0.54-3.17-0.81-4.63-0.81c-2.33,0-4.17,0.64-5.53,1.91c-1.35,1.27-2.19,2.88-2.52,4.84
			v28.45h-6.5v-40.64h4.55l1.22,4.96h0.33c1.03-1.84,2.26-3.26,3.7-4.27c1.43-1,3.26-1.5,5.49-1.5c1.57,0,3.33,0.27,5.28,0.81
			L1046.25,285.72z"/>
		<path class="st1" d="M1051.78,279.46h6.34v-8.05l6.5-1.87v9.92h11.05v5.69h-11.05v22.51c0,2.82,0.35,4.81,1.06,5.97
			c0.7,1.17,1.89,1.75,3.58,1.75c1.41,0,2.6-0.15,3.58-0.45c0.97-0.3,2.06-0.69,3.25-1.18l1.46,4.96c-1.46,0.7-3.06,1.27-4.8,1.71
			c-1.73,0.43-3.6,0.65-5.61,0.65c-3.31,0-5.64-0.94-6.99-2.8c-1.35-1.87-2.03-5-2.03-9.39v-23.73h-6.34V279.46z"/>
		<path class="st1" d="M1079.33,279.46h6.34v-8.05l6.5-1.87v9.92h11.05v5.69h-11.05v22.51c0,2.82,0.35,4.81,1.06,5.97
			c0.7,1.17,1.89,1.75,3.58,1.75c1.41,0,2.6-0.15,3.58-0.45c0.97-0.3,2.06-0.69,3.25-1.18l1.46,4.96c-1.46,0.7-3.06,1.27-4.8,1.71
			c-1.73,0.43-3.6,0.65-5.61,0.65c-3.31,0-5.64-0.94-6.99-2.8c-1.35-1.87-2.03-5-2.03-9.39v-23.73h-6.34V279.46z"/>
		<path class="st1" d="M1141.02,316.84c-1.63,1.3-3.67,2.33-6.14,3.09c-2.47,0.76-5.08,1.14-7.84,1.14c-3.09,0-5.77-0.5-8.05-1.5
			c-2.27-1-4.14-2.44-5.61-4.31c-1.46-1.87-2.55-4.1-3.25-6.71c-0.7-2.6-1.06-5.53-1.06-8.78c0-6.93,1.54-12.22,4.63-15.85
			c3.09-3.63,7.5-5.45,13.25-5.45c1.84,0,3.68,0.2,5.53,0.61c1.84,0.41,3.49,1.18,4.96,2.32c1.46,1.14,2.65,2.75,3.58,4.84
			c0.92,2.09,1.38,4.84,1.38,8.25c0,1.79-0.16,3.77-0.49,5.93h-26.09c0,2.38,0.24,4.5,0.73,6.34c0.49,1.84,1.25,3.4,2.28,4.67
			c1.03,1.27,2.37,2.25,4.02,2.93c1.65,0.68,3.67,1.01,6.05,1.01c1.84,0,3.68-0.32,5.53-0.97c1.84-0.65,3.22-1.41,4.14-2.28
			L1141.02,316.84z M1127.04,284.17c-3.2,0-5.76,0.84-7.68,2.52c-1.92,1.68-3.08,4.55-3.45,8.62h20.16c0-4.12-0.79-7-2.36-8.66
			C1132.13,285,1129.91,284.17,1127.04,284.17z"/>
		<path class="st1" d="M1176.45,320.09v-23c0-2.17-0.1-4.05-0.29-5.65c-0.19-1.6-0.56-2.94-1.1-4.02c-0.54-1.08-1.31-1.89-2.32-2.44
			c-1-0.54-2.32-0.81-3.94-0.81c-2.49,0-4.57,0.76-6.22,2.28c-1.65,1.52-2.8,3.41-3.45,5.69v27.96h-6.5v-40.64h4.55l1.22,4.96h0.33
			c1.46-1.73,3.16-3.15,5.08-4.27c1.92-1.11,4.43-1.67,7.52-1.67c2.6,0,4.73,0.5,6.38,1.5c1.65,1,2.94,2.75,3.86,5.24
			c1.25-2.11,2.97-3.76,5.16-4.96c2.19-1.19,4.67-1.79,7.44-1.79c2.28,0,4.2,0.26,5.77,0.77c1.57,0.52,2.87,1.42,3.9,2.72
			c1.03,1.3,1.77,3.06,2.23,5.28s0.69,5.04,0.69,8.45v24.38h-6.5v-24.46c0-1.95-0.09-3.64-0.28-5.08c-0.19-1.43-0.57-2.63-1.14-3.58
			c-0.57-0.95-1.35-1.65-2.36-2.11c-1-0.46-2.32-0.69-3.94-0.69c-2.71,0-4.82,0.76-6.34,2.28c-1.52,1.52-2.6,3.69-3.25,6.5v27.14
			H1176.45z"/>
		<path class="st1" d="M1218.63,263.2h6.5v20.24h0.33c1.25-1.57,2.83-2.79,4.75-3.66c1.92-0.87,4.02-1.3,6.3-1.3
			c5.26,0,9.2,1.68,11.83,5.04c2.63,3.36,3.94,8.56,3.94,15.61c0,7.1-1.73,12.49-5.2,16.17c-3.47,3.69-8.34,5.53-14.63,5.53
			c-3.04,0-5.78-0.33-8.25-0.97c-2.47-0.65-4.32-1.35-5.57-2.11V263.2z M1235.37,284.17c-2.71,0-4.91,0.76-6.58,2.28
			c-1.68,1.52-2.9,3.66-3.66,6.42v20.48c1.03,0.6,2.28,1.04,3.74,1.34c1.46,0.3,2.98,0.45,4.55,0.45c3.68,0,6.62-1.3,8.82-3.9
			c2.19-2.6,3.29-6.66,3.29-12.19c0-2.11-0.19-4.09-0.57-5.93c-0.38-1.84-0.97-3.41-1.79-4.71c-0.81-1.3-1.86-2.33-3.13-3.09
			S1237.21,284.17,1235.37,284.17z"/>
		<path class="st1" d="M1292.18,316.84c-1.63,1.3-3.67,2.33-6.14,3.09c-2.47,0.76-5.08,1.14-7.84,1.14c-3.09,0-5.77-0.5-8.05-1.5
			c-2.27-1-4.14-2.44-5.61-4.31c-1.46-1.87-2.55-4.1-3.25-6.71c-0.7-2.6-1.06-5.53-1.06-8.78c0-6.93,1.54-12.22,4.63-15.85
			c3.09-3.63,7.5-5.45,13.25-5.45c1.84,0,3.68,0.2,5.53,0.61c1.84,0.41,3.49,1.18,4.96,2.32c1.46,1.14,2.65,2.75,3.58,4.84
			c0.92,2.09,1.38,4.84,1.38,8.25c0,1.79-0.16,3.77-0.49,5.93h-26.09c0,2.38,0.24,4.5,0.73,6.34c0.49,1.84,1.25,3.4,2.28,4.67
			c1.03,1.27,2.37,2.25,4.02,2.93c1.65,0.68,3.67,1.01,6.05,1.01c1.84,0,3.68-0.32,5.53-0.97c1.84-0.65,3.22-1.41,4.14-2.28
			L1292.18,316.84z M1278.2,284.17c-3.2,0-5.76,0.84-7.68,2.52c-1.92,1.68-3.08,4.55-3.45,8.62h20.16c0-4.12-0.79-7-2.36-8.66
			C1283.3,285,1281.07,284.17,1278.2,284.17z"/>
		<path class="st1" d="M1322.98,285.72c-1.63-0.54-3.17-0.81-4.63-0.81c-2.33,0-4.17,0.64-5.53,1.91c-1.35,1.27-2.19,2.88-2.52,4.84
			v28.45h-6.5v-40.64h4.55l1.22,4.96h0.33c1.03-1.84,2.26-3.26,3.7-4.27c1.43-1,3.26-1.5,5.49-1.5c1.57,0,3.33,0.27,5.28,0.81
			L1322.98,285.72z"/>
		<path class="st1" d="M1362.56,321.96c0,5.25-1.4,9.13-4.18,11.62c-2.79,2.49-6.92,3.74-12.39,3.74c-3.25,0-5.87-0.2-7.84-0.61
			c-1.98-0.41-3.67-0.93-5.08-1.58l1.71-5.53c1.25,0.49,2.63,0.95,4.15,1.38c1.51,0.43,3.49,0.65,5.93,0.65
			c2.28,0,4.13-0.2,5.57-0.61c1.43-0.41,2.59-1.08,3.45-2.03c0.87-0.95,1.46-2.17,1.79-3.66c0.33-1.49,0.49-3.27,0.49-5.32v-3.9
			h-0.33c-1.08,1.57-2.47,2.78-4.14,3.62c-1.68,0.84-3.87,1.26-6.58,1.26c-5.47,0-9.5-1.71-12.07-5.12s-3.86-8.72-3.86-15.93
			c0-6.93,1.65-12.2,4.96-15.81s8.18-5.41,14.63-5.41c3.09,0,5.73,0.24,7.92,0.73c2.19,0.49,4.16,1.06,5.89,1.71V321.96z
			 M1346.23,315.3c2.76,0,4.93-0.69,6.5-2.07c1.57-1.38,2.68-3.54,3.33-6.46v-20.81c-2.17-1.03-4.93-1.54-8.29-1.54
			c-3.69,0-6.58,1.25-8.7,3.74c-2.11,2.49-3.17,6.39-3.17,11.7c0,2.28,0.19,4.36,0.57,6.26c0.38,1.9,0.97,3.52,1.79,4.88
			c0.81,1.35,1.87,2.41,3.17,3.17C1342.73,314.92,1344.33,315.3,1346.23,315.3z"/>
	</g>
</g>
</svg>
